<svg height="512pt" viewBox="0 0 512 512" width="512pt" xmlns="http://www.w3.org/2000/svg"><path d="m245.980469 370c0 5.519531 4.480469 10 10 10s10-4.480469 10-10-4.480469-10-10-10-10 4.480469-10 10zm0 0"/><path d="m284.742188 347.34375c3.394531 0 6.710937-1.734375 8.585937-4.859375 2.839844-4.738281 1.300781-10.878906-3.4375-13.71875-20.929687-12.550781-46.917969-12.550781-67.828125 0-4.734375 2.84375-6.269531 8.988281-3.425781 13.722656s8.984375 6.269531 13.71875 3.425781c14.5625-8.742187 32.667969-8.742187 47.25.003907 1.613281.964843 3.386719 1.425781 5.136719 1.425781zm0 0"/><path d="m332.617188 285.035156c4.597656 3.0625 10.804687 1.816406 13.867187-2.78125s1.816406-10.804687-2.78125-13.867187l-6.703125-4.464844c-49.21875-32.828125-112.8125-32.832031-162.011719-.015625l-6.730469 4.480469c-4.597656 3.058593-5.839843 9.269531-2.78125 13.867187 3.050782 4.582032 9.253907 5.851563 13.867188 2.78125l6.734375-4.484375c42.464844-28.324219 97.347656-28.320312 139.828125.015625zm0 0"/><path d="m305.925781 315.316406c4.609375 3.078125 10.8125 1.816406 13.871094-2.757812 3.066406-4.59375 1.832031-10.804688-2.757813-13.871094l-2.242187-1.496094c-35.730469-23.8125-81.902344-23.8125-117.640625.003906l-2.230469 1.492188c-4.59375 3.066406-5.828125 9.277344-2.757812 13.871094 3.070312 4.59375 9.28125 5.828125 13.871093 2.757812l2.21875-1.484375c28.992188-19.320312 66.457032-19.320312 95.4375-.007812zm0 0"/><path d="m65.980469 50v129.914062l-56.027344 57.628907c-13.488281 13.792969-13.234375 35.996093.5625 49.484375 13.816406 13.523437 35.964844 13.273437 49.496094-.5625l5.96875-6.105469v44.640625c0 5.523438 4.476562 10 10 10 5.523437 0 10-4.476562 10-10v-65.09375l170-173.832031 170 173.832031v192.09375h-340v-47c0-5.523438-4.476563-10-10-10-5.523438 0-10 4.476562-10 10v47h-10c-16.574219 0-30 13.425781-30 30 0 16.542969 13.460937 30 30 30h400c16.574219 0 30-13.425781 30-30 0-16.542969-13.457031-30-30-30h-10v-171.640625l5.964843 6.097656c13.597657 13.929688 35.75 14.007813 49.496094.574219 13.800782-13.496094 14.058594-35.695312.589844-49.472656l-221.019531-227.324219c-6.351563-6.503906-15.476563-10.234375-25.03125-10.234375-9.554688 0-18.675781 3.730469-25.050781 10.253906l-84.949219 87.375v-47.628906c0-5.519531-4.476563-10-10-10h-60c-5.523438 0-10 4.480469-10 10zm400 432c0 5.519531-4.480469 10-10 10h-400c-5.511719 0-10-4.484375-10-10 0-5.519531 4.480469-10 10-10h400c5.511719 0 10 4.484375 10 10zm-220.726563-457.789062c2.613282-2.675782 6.523438-4.210938 10.726563-4.210938s8.113281 1.535156 10.710937 4.191406l221.019532 227.332032c5.777343 5.910156 5.664062 15.421874-.25 21.207031-5.894532 5.761719-15.382813 5.71875-21.210938-.25l-203.121094-207.699219c-1.878906-1.925781-4.457031-3.007812-7.148437-3.007812-2.691407 0-5.265625 1.082031-7.148438 3.007812l-203.121093 207.699219c-5.886719 6.023437-15.375 5.957031-21.207032.25-5.917968-5.785157-6.027344-15.296875-.230468-21.226563 3.785156-3.894531 217.792968-223.980468 220.980468-227.292968zm-119.273437 35.789062v58.199219l-40 41.140625v-99.339844zm0 0"/><path d="m75.980469 375c5.519531 0 10-4.480469 10-10s-4.480469-10-10-10-10 4.480469-10 10 4.480469 10 10 10zm0 0"/></svg>